<mxfile host="Electron" modified="2024-12-30T09:18:57.512Z" agent="Mozilla/5.0 (Macintosh; Intel Mac OS X 10_15_7) AppleWebKit/537.36 (KHTML, like Gecko) draw.io/22.1.2 Chrome/114.0.5735.289 Electron/25.9.4 Safari/537.36" etag="HmAerOW3u_RX-6pMnWcI" version="22.1.2" type="device">
  <diagram name="Page-1" id="xVTEo1vJImrhgSJ8Y1eh">
    <mxGraphModel dx="954" dy="674" grid="1" gridSize="10" guides="1" tooltips="1" connect="1" arrows="1" fold="1" page="1" pageScale="1" pageWidth="900" pageHeight="1600" math="0" shadow="0">
      <root>
        <mxCell id="0" />
        <mxCell id="1" parent="0" />
        <mxCell id="RdlFfRpmJ4tGynrPAnEo-40" value="" style="endArrow=none;html=1;rounded=1;strokeWidth=6;strokeColor=#001DBC;fillColor=#0050ef;exitX=0;exitY=0.475;exitDx=0;exitDy=0;exitPerimeter=0;" parent="1" source="RdlFfRpmJ4tGynrPAnEo-42" edge="1">
          <mxGeometry width="50" height="50" relative="1" as="geometry">
            <mxPoint x="980" y="479.5" as="sourcePoint" />
            <mxPoint x="880" y="479.5" as="targetPoint" />
            <Array as="points" />
          </mxGeometry>
        </mxCell>
        <mxCell id="RdlFfRpmJ4tGynrPAnEo-9" value="" style="endArrow=none;html=1;rounded=1;strokeWidth=6;strokeColor=#FF9914;exitX=1;exitY=0.5;exitDx=0;exitDy=0;entryX=0;entryY=0.5;entryDx=0;entryDy=0;" parent="1" source="RdlFfRpmJ4tGynrPAnEo-10" target="RdlFfRpmJ4tGynrPAnEo-12" edge="1">
          <mxGeometry width="50" height="50" relative="1" as="geometry">
            <mxPoint x="175" y="259.5" as="sourcePoint" />
            <mxPoint x="265" y="259.5" as="targetPoint" />
          </mxGeometry>
        </mxCell>
        <mxCell id="RdlFfRpmJ4tGynrPAnEo-11" value="" style="endArrow=none;html=1;rounded=1;strokeWidth=6;strokeColor=#FF9914;exitX=1;exitY=0.5;exitDx=0;exitDy=0;entryX=0;entryY=0.5;entryDx=0;entryDy=0;" parent="1" source="RdlFfRpmJ4tGynrPAnEo-12" target="RdlFfRpmJ4tGynrPAnEo-14" edge="1">
          <mxGeometry width="50" height="50" relative="1" as="geometry">
            <mxPoint x="300" y="250" as="sourcePoint" />
            <mxPoint x="350" y="240" as="targetPoint" />
          </mxGeometry>
        </mxCell>
        <mxCell id="RdlFfRpmJ4tGynrPAnEo-12" value="" style="ellipse;aspect=fixed;rounded=1;rotation=0;strokeWidth=2;spacingTop=50;html=1;" parent="1" vertex="1">
          <mxGeometry x="260" y="265.45" width="20" height="20" as="geometry" />
        </mxCell>
        <mxCell id="RdlFfRpmJ4tGynrPAnEo-13" value="" style="endArrow=none;html=1;rounded=1;strokeWidth=6;strokeColor=#FF9914;entryX=0;entryY=0.5;entryDx=0;entryDy=0;exitX=1;exitY=0.5;exitDx=0;exitDy=0;" parent="1" source="RdlFfRpmJ4tGynrPAnEo-14" target="RdlFfRpmJ4tGynrPAnEo-15" edge="1">
          <mxGeometry width="50" height="50" relative="1" as="geometry">
            <mxPoint x="410" y="240" as="sourcePoint" />
            <mxPoint x="460" y="240" as="targetPoint" />
            <Array as="points">
              <mxPoint x="440" y="275" />
            </Array>
          </mxGeometry>
        </mxCell>
        <mxCell id="RdlFfRpmJ4tGynrPAnEo-14" value="" style="ellipse;aspect=fixed;rounded=1;rotation=0;strokeWidth=2;spacingTop=50;html=1;" parent="1" vertex="1">
          <mxGeometry x="370" y="265.45" width="20" height="20" as="geometry" />
        </mxCell>
        <mxCell id="RdlFfRpmJ4tGynrPAnEo-16" value="compute GC Bias" style="text;html=1;align=center;verticalAlign=middle;resizable=0;points=[];autosize=1;strokeColor=none;fillColor=none;rotation=-45;fontSize=10;fontFamily=Helvetica;fontStyle=1" parent="1" vertex="1">
          <mxGeometry x="146" y="219" width="110" height="30" as="geometry" />
        </mxCell>
        <mxCell id="RdlFfRpmJ4tGynrPAnEo-17" value="correct GC Bias" style="text;html=1;align=center;verticalAlign=middle;resizable=0;points=[];autosize=1;strokeColor=none;fillColor=none;rotation=-45;fontSize=10;fontFamily=Helvetica;fontStyle=1" parent="1" vertex="1">
          <mxGeometry x="256" y="219" width="100" height="30" as="geometry" />
        </mxCell>
        <mxCell id="RdlFfRpmJ4tGynrPAnEo-18" value="samtools index" style="text;html=1;align=center;verticalAlign=middle;resizable=0;points=[];autosize=1;strokeColor=none;fillColor=none;rotation=-45;fontSize=10;fontFamily=Helvetica;fontStyle=1" parent="1" vertex="1">
          <mxGeometry x="370" y="219" width="100" height="30" as="geometry" />
        </mxCell>
        <mxCell id="RdlFfRpmJ4tGynrPAnEo-19" value="coverage bam" style="text;html=1;align=center;verticalAlign=middle;resizable=0;points=[];autosize=1;strokeColor=none;fillColor=none;rotation=-45;fontSize=10;fontFamily=Helvetica;fontStyle=1" parent="1" vertex="1">
          <mxGeometry x="480" y="220" width="90" height="30" as="geometry" />
        </mxCell>
        <mxCell id="RdlFfRpmJ4tGynrPAnEo-31" value="" style="endArrow=none;html=1;rounded=1;strokeWidth=6;strokeColor=#24B064;entryX=0;entryY=0.5;entryDx=0;entryDy=0;exitX=1;exitY=0.5;exitDx=0;exitDy=0;" parent="1" source="RdlFfRpmJ4tGynrPAnEo-30" target="RdlFfRpmJ4tGynrPAnEo-32" edge="1">
          <mxGeometry width="50" height="50" relative="1" as="geometry">
            <mxPoint x="700" y="430" as="sourcePoint" />
            <mxPoint x="550" y="437" as="targetPoint" />
          </mxGeometry>
        </mxCell>
        <mxCell id="RdlFfRpmJ4tGynrPAnEo-33" value="" style="endArrow=none;html=1;rounded=1;strokeWidth=6;strokeColor=#ff9914;entryX=0.5;entryY=0;entryDx=0;entryDy=0;exitX=1;exitY=0.5;exitDx=0;exitDy=0;" parent="1" target="RdlFfRpmJ4tGynrPAnEo-32" edge="1" source="Q5g6M6LgOJFDuaa8ZlxA-8">
          <mxGeometry width="50" height="50" relative="1" as="geometry">
            <mxPoint x="670" y="276" as="sourcePoint" />
            <mxPoint x="890" y="631.45" as="targetPoint" />
            <Array as="points">
              <mxPoint x="742" y="276" />
              <mxPoint x="782" y="310" />
            </Array>
          </mxGeometry>
        </mxCell>
        <mxCell id="RdlFfRpmJ4tGynrPAnEo-32" value="" style="ellipse;aspect=fixed;rounded=1;rotation=0;strokeWidth=2;spacingTop=50;html=1;" parent="1" vertex="1">
          <mxGeometry x="772" y="425.45" width="20" height="20" as="geometry" />
        </mxCell>
        <mxCell id="RdlFfRpmJ4tGynrPAnEo-34" value="compute&lt;br&gt;matrix" style="text;html=1;align=center;verticalAlign=middle;resizable=0;points=[];autosize=1;strokeColor=none;fillColor=none;rotation=-45;fontSize=10;fontFamily=Helvetica;fontStyle=1" parent="1" vertex="1">
          <mxGeometry x="773" y="389.45" width="70" height="40" as="geometry" />
        </mxCell>
        <mxCell id="RdlFfRpmJ4tGynrPAnEo-35" value="" style="endArrow=none;html=1;rounded=1;strokeWidth=6;strokeColor=#001DBC;entryX=0.5;entryY=1;entryDx=0;entryDy=0;fillColor=#0050ef;exitX=0;exitY=0.5;exitDx=0;exitDy=0;" parent="1" source="RdlFfRpmJ4tGynrPAnEo-36" target="RdlFfRpmJ4tGynrPAnEo-32" edge="1">
          <mxGeometry width="50" height="50" relative="1" as="geometry">
            <mxPoint x="892" y="480" as="sourcePoint" />
            <mxPoint x="887.0710678118653" y="623.9289321881347" as="targetPoint" />
            <Array as="points">
              <mxPoint x="792" y="480" />
            </Array>
          </mxGeometry>
        </mxCell>
        <mxCell id="RdlFfRpmJ4tGynrPAnEo-36" value="" style="ellipse;aspect=fixed;rounded=1;rotation=0;strokeWidth=2;spacingTop=50;html=1;" parent="1" vertex="1">
          <mxGeometry x="862" y="469.9999999999999" width="20" height="20" as="geometry" />
        </mxCell>
        <mxCell id="RdlFfRpmJ4tGynrPAnEo-37" value="heatmap" style="text;html=1;align=center;verticalAlign=middle;resizable=0;points=[];autosize=1;strokeColor=none;fillColor=none;rotation=-45;fontSize=10;fontFamily=Helvetica;fontStyle=1" parent="1" vertex="1">
          <mxGeometry x="868" y="438.17" width="60" height="30" as="geometry" />
        </mxCell>
        <mxCell id="RdlFfRpmJ4tGynrPAnEo-41" value="peak integration" style="text;html=1;align=center;verticalAlign=middle;resizable=0;points=[];autosize=1;strokeColor=none;fillColor=none;rotation=-45;fontSize=10;fontFamily=Helvetica;fontStyle=1;spacing=2;" parent="1" vertex="1">
          <mxGeometry x="979" y="428.45" width="100" height="30" as="geometry" />
        </mxCell>
        <mxCell id="RdlFfRpmJ4tGynrPAnEo-42" value="" style="ellipse;aspect=fixed;rounded=1;rotation=0;strokeWidth=2;spacingTop=50;html=1;" parent="1" vertex="1">
          <mxGeometry x="982" y="469.9999999999999" width="20" height="20" as="geometry" />
        </mxCell>
        <mxCell id="Q5g6M6LgOJFDuaa8ZlxA-1" value="" style="endArrow=none;html=1;rounded=1;strokeWidth=6;strokeColor=#FF9914;exitX=1;exitY=0.5;exitDx=0;exitDy=0;entryX=0;entryY=0.5;entryDx=0;entryDy=0;" edge="1" parent="1" source="RdlFfRpmJ4tGynrPAnEo-8" target="RdlFfRpmJ4tGynrPAnEo-10">
          <mxGeometry width="50" height="50" relative="1" as="geometry">
            <mxPoint x="256" y="275.45000000000005" as="sourcePoint" />
            <mxPoint x="330" y="275" as="targetPoint" />
          </mxGeometry>
        </mxCell>
        <mxCell id="RdlFfRpmJ4tGynrPAnEo-10" value="" style="ellipse;aspect=fixed;rounded=1;rotation=0;strokeWidth=2;spacingTop=50;" parent="1" vertex="1">
          <mxGeometry x="150" y="265.45" width="20" height="20" as="geometry" />
        </mxCell>
        <mxCell id="RdlFfRpmJ4tGynrPAnEo-2" value="" style="group;aspect=fixed;" parent="1" vertex="1" connectable="0">
          <mxGeometry x="39" y="220" width="80" height="87.13" as="geometry" />
        </mxCell>
        <mxCell id="RdlFfRpmJ4tGynrPAnEo-3" value="" style="shape=note;whiteSpace=wrap;html=1;backgroundOutline=1;darkOpacity=0.05;rounded=1;size=20;strokeWidth=2;" parent="RdlFfRpmJ4tGynrPAnEo-2" vertex="1">
          <mxGeometry x="4" width="64" height="79.2090909090909" as="geometry" />
        </mxCell>
        <mxCell id="RdlFfRpmJ4tGynrPAnEo-4" value="&lt;font data-font-src=&quot;https://fonts.googleapis.com/css?family=Maven+Pro&quot; face=&quot;Maven Pro&quot; color=&quot;#ffffff&quot;&gt;&lt;b&gt;&lt;font style=&quot;font-size: 20px;&quot;&gt;Fastq&lt;/font&gt;&lt;/b&gt;&lt;/font&gt;" style="rounded=1;whiteSpace=wrap;html=1;strokeWidth=2;fillColor=#000000;" parent="RdlFfRpmJ4tGynrPAnEo-2" vertex="1">
          <mxGeometry y="31.683636363636364" width="72.00000000000001" height="31.683636363636364" as="geometry" />
        </mxCell>
        <mxCell id="RdlFfRpmJ4tGynrPAnEo-5" value="" style="shape=note;whiteSpace=wrap;html=1;backgroundOutline=1;darkOpacity=0.05;rounded=1;size=20;strokeWidth=2;" parent="RdlFfRpmJ4tGynrPAnEo-2" vertex="1">
          <mxGeometry x="8" y="3.9604545454545454" width="64" height="79.2090909090909" as="geometry" />
        </mxCell>
        <mxCell id="RdlFfRpmJ4tGynrPAnEo-6" value="&lt;font data-font-src=&quot;https://fonts.googleapis.com/css?family=Maven+Pro&quot; face=&quot;Maven Pro&quot; color=&quot;#ffffff&quot;&gt;&lt;b&gt;&lt;font style=&quot;font-size: 20px;&quot;&gt;Fastq&lt;/font&gt;&lt;/b&gt;&lt;/font&gt;" style="rounded=1;whiteSpace=wrap;html=1;strokeWidth=2;fillColor=#000000;" parent="RdlFfRpmJ4tGynrPAnEo-2" vertex="1">
          <mxGeometry x="4" y="35.644090909090906" width="72.00000000000001" height="31.683636363636364" as="geometry" />
        </mxCell>
        <mxCell id="RdlFfRpmJ4tGynrPAnEo-7" value="" style="shape=note;whiteSpace=wrap;html=1;backgroundOutline=1;darkOpacity=0.05;rounded=1;size=20;strokeWidth=2;" parent="RdlFfRpmJ4tGynrPAnEo-2" vertex="1">
          <mxGeometry x="12" y="7.920909090909091" width="64" height="79.2090909090909" as="geometry" />
        </mxCell>
        <mxCell id="RdlFfRpmJ4tGynrPAnEo-8" value="&lt;font data-font-src=&quot;https://fonts.googleapis.com/css?family=Maven+Pro&quot; face=&quot;Maven Pro&quot; color=&quot;#ffffff&quot;&gt;&lt;b&gt;&lt;font style=&quot;font-size: 20px;&quot;&gt;BAM&lt;/font&gt;&lt;/b&gt;&lt;/font&gt;" style="rounded=1;whiteSpace=wrap;html=1;strokeWidth=2;fillColor=#000000;" parent="RdlFfRpmJ4tGynrPAnEo-2" vertex="1">
          <mxGeometry x="8" y="39.60454545454545" width="72.00000000000001" height="31.683636363636364" as="geometry" />
        </mxCell>
        <mxCell id="Q5g6M6LgOJFDuaa8ZlxA-9" value="" style="endArrow=none;html=1;rounded=1;strokeWidth=6;strokeColor=#FF9914;entryX=0;entryY=0.75;entryDx=0;entryDy=0;exitX=1;exitY=0.5;exitDx=0;exitDy=0;" edge="1" parent="1" source="RdlFfRpmJ4tGynrPAnEo-15" target="Q5g6M6LgOJFDuaa8ZlxA-4">
          <mxGeometry width="50" height="50" relative="1" as="geometry">
            <mxPoint x="400" y="285" as="sourcePoint" />
            <mxPoint x="490" y="285" as="targetPoint" />
            <Array as="points" />
          </mxGeometry>
        </mxCell>
        <mxCell id="Q5g6M6LgOJFDuaa8ZlxA-2" value="" style="group;aspect=fixed;" vertex="1" connectable="0" parent="1">
          <mxGeometry x="600" y="220" width="80" height="87.13" as="geometry" />
        </mxCell>
        <mxCell id="Q5g6M6LgOJFDuaa8ZlxA-3" value="" style="shape=note;whiteSpace=wrap;html=1;backgroundOutline=1;darkOpacity=0.05;rounded=1;size=20;strokeWidth=2;" vertex="1" parent="Q5g6M6LgOJFDuaa8ZlxA-2">
          <mxGeometry x="4" width="64" height="79.2090909090909" as="geometry" />
        </mxCell>
        <mxCell id="Q5g6M6LgOJFDuaa8ZlxA-4" value="&lt;font data-font-src=&quot;https://fonts.googleapis.com/css?family=Maven+Pro&quot; face=&quot;Maven Pro&quot; color=&quot;#ffffff&quot;&gt;&lt;b&gt;&lt;font style=&quot;font-size: 20px;&quot;&gt;Fastq&lt;/font&gt;&lt;/b&gt;&lt;/font&gt;" style="rounded=1;whiteSpace=wrap;html=1;strokeWidth=2;fillColor=#000000;" vertex="1" parent="Q5g6M6LgOJFDuaa8ZlxA-2">
          <mxGeometry y="31.683636363636364" width="72.00000000000001" height="31.683636363636364" as="geometry" />
        </mxCell>
        <mxCell id="Q5g6M6LgOJFDuaa8ZlxA-5" value="" style="shape=note;whiteSpace=wrap;html=1;backgroundOutline=1;darkOpacity=0.05;rounded=1;size=20;strokeWidth=2;" vertex="1" parent="Q5g6M6LgOJFDuaa8ZlxA-2">
          <mxGeometry x="8" y="3.9604545454545454" width="64" height="79.2090909090909" as="geometry" />
        </mxCell>
        <mxCell id="Q5g6M6LgOJFDuaa8ZlxA-6" value="&lt;font data-font-src=&quot;https://fonts.googleapis.com/css?family=Maven+Pro&quot; face=&quot;Maven Pro&quot; color=&quot;#ffffff&quot;&gt;&lt;b&gt;&lt;font style=&quot;font-size: 20px;&quot;&gt;Fastq&lt;/font&gt;&lt;/b&gt;&lt;/font&gt;" style="rounded=1;whiteSpace=wrap;html=1;strokeWidth=2;fillColor=#000000;" vertex="1" parent="Q5g6M6LgOJFDuaa8ZlxA-2">
          <mxGeometry x="4" y="35.644090909090906" width="72.00000000000001" height="31.683636363636364" as="geometry" />
        </mxCell>
        <mxCell id="Q5g6M6LgOJFDuaa8ZlxA-7" value="" style="shape=note;whiteSpace=wrap;html=1;backgroundOutline=1;darkOpacity=0.05;rounded=1;size=20;strokeWidth=2;" vertex="1" parent="Q5g6M6LgOJFDuaa8ZlxA-2">
          <mxGeometry x="12" y="7.920909090909091" width="64" height="79.2090909090909" as="geometry" />
        </mxCell>
        <mxCell id="Q5g6M6LgOJFDuaa8ZlxA-8" value="&lt;font face=&quot;Maven Pro&quot; color=&quot;#ffffff&quot;&gt;&lt;span style=&quot;font-size: 20px;&quot;&gt;&lt;b&gt;BW&lt;/b&gt;&lt;/span&gt;&lt;/font&gt;" style="rounded=1;whiteSpace=wrap;html=1;strokeWidth=2;fillColor=#000000;" vertex="1" parent="Q5g6M6LgOJFDuaa8ZlxA-2">
          <mxGeometry x="8" y="39.60454545454545" width="72.00000000000001" height="31.683636363636364" as="geometry" />
        </mxCell>
        <mxCell id="RdlFfRpmJ4tGynrPAnEo-15" value="" style="ellipse;aspect=fixed;rounded=1;rotation=0;strokeWidth=2;spacingTop=50;html=1;" parent="1" vertex="1">
          <mxGeometry x="480" y="265.45" width="20" height="20" as="geometry" />
        </mxCell>
        <mxCell id="Q5g6M6LgOJFDuaa8ZlxA-10" value="" style="group" vertex="1" connectable="0" parent="1">
          <mxGeometry x="600" y="380.04" width="80" height="87.12999999999994" as="geometry" />
        </mxCell>
        <mxCell id="RdlFfRpmJ4tGynrPAnEo-25" value="" style="shape=note;whiteSpace=wrap;html=1;backgroundOutline=1;darkOpacity=0.05;rounded=1;size=20;strokeWidth=2;" parent="Q5g6M6LgOJFDuaa8ZlxA-10" vertex="1">
          <mxGeometry x="4" width="64" height="79.2090909090909" as="geometry" />
        </mxCell>
        <mxCell id="RdlFfRpmJ4tGynrPAnEo-26" value="&lt;font data-font-src=&quot;https://fonts.googleapis.com/css?family=Maven+Pro&quot; face=&quot;Maven Pro&quot; color=&quot;#ffffff&quot;&gt;&lt;b&gt;&lt;font style=&quot;font-size: 20px;&quot;&gt;Fastq&lt;/font&gt;&lt;/b&gt;&lt;/font&gt;" style="rounded=1;whiteSpace=wrap;html=1;strokeWidth=2;fillColor=#000000;" parent="Q5g6M6LgOJFDuaa8ZlxA-10" vertex="1">
          <mxGeometry y="31.68363636363631" width="72.00000000000001" height="31.683636363636364" as="geometry" />
        </mxCell>
        <mxCell id="RdlFfRpmJ4tGynrPAnEo-27" value="" style="shape=note;whiteSpace=wrap;html=1;backgroundOutline=1;darkOpacity=0.05;rounded=1;size=20;strokeWidth=2;" parent="Q5g6M6LgOJFDuaa8ZlxA-10" vertex="1">
          <mxGeometry x="8" y="3.9604545454545814" width="64" height="79.2090909090909" as="geometry" />
        </mxCell>
        <mxCell id="RdlFfRpmJ4tGynrPAnEo-28" value="&lt;font data-font-src=&quot;https://fonts.googleapis.com/css?family=Maven+Pro&quot; face=&quot;Maven Pro&quot; color=&quot;#ffffff&quot;&gt;&lt;b&gt;&lt;font style=&quot;font-size: 20px;&quot;&gt;Fastq&lt;/font&gt;&lt;/b&gt;&lt;/font&gt;" style="rounded=1;whiteSpace=wrap;html=1;strokeWidth=2;fillColor=#000000;" parent="Q5g6M6LgOJFDuaa8ZlxA-10" vertex="1">
          <mxGeometry x="4" y="35.64409090909089" width="72.00000000000001" height="31.683636363636364" as="geometry" />
        </mxCell>
        <mxCell id="RdlFfRpmJ4tGynrPAnEo-29" value="" style="shape=note;whiteSpace=wrap;html=1;backgroundOutline=1;darkOpacity=0.05;rounded=1;size=20;strokeWidth=2;" parent="Q5g6M6LgOJFDuaa8ZlxA-10" vertex="1">
          <mxGeometry x="12" y="7.920909090909049" width="64" height="79.2090909090909" as="geometry" />
        </mxCell>
        <mxCell id="RdlFfRpmJ4tGynrPAnEo-30" value="&lt;font data-font-src=&quot;https://fonts.googleapis.com/css?family=Maven+Pro&quot; face=&quot;Maven Pro&quot; color=&quot;#ffffff&quot;&gt;&lt;b&gt;&lt;font style=&quot;font-size: 20px;&quot;&gt;BED&lt;/font&gt;&lt;/b&gt;&lt;/font&gt;" style="rounded=1;whiteSpace=wrap;html=1;strokeWidth=2;fillColor=#000000;" parent="Q5g6M6LgOJFDuaa8ZlxA-10" vertex="1">
          <mxGeometry x="8" y="39.60454545454547" width="72.00000000000001" height="31.683636363636364" as="geometry" />
        </mxCell>
      </root>
    </mxGraphModel>
  </diagram>
</mxfile>
